# xmcd
#
# Track frame offsets:
#	150
#	15721
#	29732
#	44650
#	57884
#	69532
#	81011
#	93312
#	105054
#	117259
#	131556
#	144161
#	157274
#	169109
#	180831
#	192696
#	203095
#	214056
#
# Disc length: 3051
#
# Revision: 5
# Processed by: cddbd v1.5.1PL0 Copyright (c) Steve Scherf et al.
# Submitted via: dBpowerAMP V4.0
# Normalized: r4:TRMNUM
#
DISCID=f90be912
DTITLE=Muddy Waters - The Blues. Rolling Stone 1941-1950 [CD1]
DYEAR=1900
DGENRE=blues
TTITLE0=Country Blues
TTITLE1=I Be's Troubled
TTITLE2=Ramblin' Kid Blues
TTITLE3=Jitterbug Bues
TTITLE4=Gipsy Woman
TTITLE5=Little Anna Mae
TTITLE6=Good Looking Woman
TTITLE7=Mean Disposition
TTITLE8=I Can't Be Satisfied
TTITLE9=I Feel Like Going Home
TTITLE10=Train Fare Home
TTITLE11=Down South Blues
TTITLE12=Kind Hearted Woman
TTITLE13=Sittin' Here And Drinkin'
TTITLE14=You're Gonna Miss Me
TTITLE15=Mean Red Spider
TTITLE16=Standing Here Trembling
TTITLE17=Streamline Woman
EXTD=
EXTT0=
EXTT1=
EXTT2=
EXTT3=
EXTT4=
EXTT5=
EXTT6=
EXTT7=
EXTT8=
EXTT9=
EXTT10=
EXTT11=
EXTT12=
EXTT13=
EXTT14=
EXTT15=
EXTT16=
EXTT17=
PLAYORDER=
